<svg width="29" height="29" viewBox="0 0 29 29" fill="none" xmlns="http://www.w3.org/2000/svg">
<path d="M0.865234 14.3694C0.865234 21.8279 6.91134 27.8739 14.3698 27.8739C21.8282 27.8739 27.8747 21.8279 27.8747 14.3694C27.8747 6.91098 21.8282 0.864868 14.3698 0.864868C6.91134 0.864868 0.865234 6.91098 0.865234 14.3694Z" fill="#0C0C4F" stroke="#EC796B" stroke-width="0.346275"/>
<path fill-rule="evenodd" clip-rule="evenodd" d="M8.33686 11.1473L8.67449 10.1041C8.74309 9.892 8.91057 9.72691 9.12346 9.66181L10.1717 9.33943C10.3168 9.29511 10.318 9.09042 10.174 9.04378L9.13058 8.70615C8.91878 8.63749 8.75369 8.47007 8.68824 8.25711L8.36627 7.20885C8.32195 7.06414 8.11727 7.06257 8.07056 7.20694L7.73292 8.25007C7.66433 8.4618 7.49685 8.62689 7.28391 8.6924L6.23568 9.01438C6.09059 9.05903 6.08902 9.26338 6.23333 9.31002L7.27685 9.64765C7.48861 9.71631 7.65373 9.88414 7.71918 10.0971L8.04115 11.1449C8.08546 11.29 8.29015 11.2916 8.33686 11.1473Z" fill="#FAFAFA"/>
<path fill-rule="evenodd" clip-rule="evenodd" d="M24.9045 10.5402C24.4723 10.057 23.7979 9.78484 23.1423 9.6733C22.4813 9.56613 21.7884 9.57605 21.1359 9.69197C19.8157 9.91532 18.6164 10.462 17.5704 11.1363C17.0272 11.4673 16.5639 11.8502 16.084 12.2402C15.8527 12.4374 15.6419 12.6475 15.4223 12.8545L14.8223 13.4515C14.1705 14.1329 13.5279 14.7535 12.9062 15.268C12.282 15.7801 11.6984 16.169 11.1233 16.4406C10.5485 16.7136 9.93346 16.8741 9.13188 16.8998C8.33734 16.9279 7.39724 16.7845 6.39169 16.5478C5.38073 16.3121 4.31913 15.9762 3.13281 15.6872C3.54675 16.8355 4.17009 17.8504 4.97037 18.778C5.78005 19.6895 6.7911 20.5204 8.08991 21.0668C9.36994 21.6253 10.9786 21.8258 12.4827 21.5233C13.9908 21.2331 15.3143 20.5352 16.384 19.7281C17.4565 18.9128 18.3242 17.984 19.0556 17.0185C19.2576 16.7517 19.3644 16.6024 19.5106 16.3939L19.9144 15.7956C20.1951 15.4255 20.4506 15.0042 20.7284 14.6375C21.2731 13.8696 21.8101 13.1026 22.4342 12.396C22.7483 12.0376 23.0793 11.6947 23.4703 11.3653C23.6654 11.2044 23.8761 11.0471 24.1094 10.9053C24.3463 10.7524 24.5965 10.6327 24.9045 10.5402Z" fill="#EC796B"/>
<path fill-rule="evenodd" clip-rule="evenodd" d="M24.9045 10.5399C24.4402 9.36842 23.5772 8.38233 22.4188 7.65468C21.2674 6.93504 19.6682 6.56778 18.0836 6.88085C17.3007 7.03227 16.5423 7.32374 15.8767 7.71192C15.2141 8.09858 14.6204 8.56397 14.1064 9.06334C13.8498 9.31378 13.6169 9.57509 13.3856 9.83791L12.7858 10.6025L11.8595 11.8333C10.6787 13.4169 9.40706 15.2727 7.3203 15.8226C5.27167 16.3625 4.38314 15.8844 3.13281 15.6869C3.36143 16.2772 3.64462 16.8503 4.02854 17.3546C4.40531 17.8691 4.85033 18.3523 5.40361 18.7665C5.68321 18.9654 5.97841 19.1618 6.30627 19.3283C6.63264 19.4892 6.9846 19.6308 7.36028 19.7374C8.10755 19.9422 8.94879 20.014 9.76337 19.9038C10.5784 19.7951 11.3573 19.5368 12.0382 19.1938C12.724 18.854 13.3215 18.4403 13.855 18.0036C14.9156 17.1228 15.7406 16.1497 16.4374 15.166C16.7879 14.6742 17.106 14.173 17.4003 13.6718L17.7466 13.0751C17.8525 12.9007 17.9596 12.7252 18.0684 12.5617C18.5072 11.905 18.9364 11.3784 19.4577 10.9832C19.9718 10.5777 20.6877 10.2782 21.6443 10.2086C22.5969 10.1382 23.6967 10.2683 24.9045 10.5399Z" fill="#FAFAFA"/>
<path fill-rule="evenodd" clip-rule="evenodd" d="M19.751 20.273C19.751 21.1333 20.4488 21.8312 21.3092 21.8312C22.1696 21.8312 22.8666 21.1333 22.8666 20.273C22.8666 19.4126 22.1696 18.7147 21.3092 18.7147C20.4488 18.7147 19.751 19.4126 19.751 20.273Z" fill="#EC796B"/>
</svg>
