<svg width="70" height="88" viewBox="0 0 70 88" fill="none" xmlns="http://www.w3.org/2000/svg">
<path d="M47.5575 7.24755C47.6869 7.472 47.5151 7.74899 47.2599 7.74899C42.0973 7.74899 37.9006 11.9343 37.8021 17.135C36.0343 16.7971 34.2026 16.7717 32.3931 17.0838C32.2681 11.9068 28.0821 7.74898 22.9364 7.74898C22.6811 7.74898 22.5091 7.47178 22.6386 7.24717C25.1374 2.91265 29.7816 0 35.0979 0C40.4145 0 45.0588 2.91282 47.5575 7.24755Z" fill="url(#paint0_radial_7256_27550)"/>
<path d="M63.4268 39.5916C64.9212 40.055 66.3345 38.7149 65.8096 37.2138C61.1071 23.7654 46.2588 18.2707 35.0273 18.2707C23.776 18.2707 8.59671 23.9411 4.23652 37.2836C3.74927 38.7746 5.15867 40.07 6.63088 39.6081L33.8851 31.0566C34.5385 30.8516 35.2371 30.8504 35.8912 31.0533L63.4268 39.5916Z" fill="url(#paint1_radial_7256_27550)"/>
<path d="M4.17511 41.9181L33.9063 32.685C34.5558 32.4833 35.2494 32.4827 35.8992 32.6834L65.8162 41.9226C68.3002 42.6897 70 45.0327 70 47.6894V75.3676C69.8848 82.1236 63.9576 87.5387 57.3619 87.5387H46.4066C45.3237 87.5387 44.4467 86.6418 44.4467 85.533V75.8287C44.4467 72.0075 46.6552 68.5489 50.0728 67.0182C54.654 64.9662 60.0737 62.1908 61.093 56.6211C61.4221 54.8234 60.2773 53.0894 58.5262 52.733C54.0983 51.8318 49.1896 52.1799 45.0385 54.081C40.3261 56.2393 39.0934 59.8293 38.637 64.6509L38.0839 69.845C37.9148 71.4326 36.4613 72.6487 34.9025 72.6487C33.2899 72.6487 32.0808 71.3911 31.9059 69.7488L31.363 64.6509C30.9721 60.521 30.2635 56.5093 26.094 54.5997C21.3379 52.4215 16.5584 51.6981 11.4738 52.733C9.72272 53.0894 8.57795 54.8234 8.90696 56.6211C9.93522 62.2393 15.3123 64.9512 19.9272 67.0182C23.3448 68.5489 25.5533 72.0075 25.5533 75.8287V85.5312C25.5533 86.64 24.6767 87.5387 23.5937 87.5387H12.6381C6.04236 87.5387 0.115192 82.1236 0 75.3676V47.6822C0 45.0289 1.6955 42.6881 4.17511 41.9181Z" fill="url(#paint2_radial_7256_27550)"/>
<defs>
<radialGradient id="paint0_radial_7256_27550" cx="0" cy="0" r="1" gradientUnits="userSpaceOnUse" gradientTransform="translate(35 43.7694) rotate(90) scale(43.7694 35)">
<stop offset="0.47" stop-color="#587EFF"/>
<stop offset="1" stop-color="#5478F4"/>
</radialGradient>
<radialGradient id="paint1_radial_7256_27550" cx="0" cy="0" r="1" gradientUnits="userSpaceOnUse" gradientTransform="translate(35 43.7694) rotate(90) scale(43.7694 35)">
<stop offset="0.47" stop-color="#587EFF"/>
<stop offset="1" stop-color="#5478F4"/>
</radialGradient>
<radialGradient id="paint2_radial_7256_27550" cx="0" cy="0" r="1" gradientUnits="userSpaceOnUse" gradientTransform="translate(35 43.7694) rotate(90) scale(43.7694 35)">
<stop offset="0.47" stop-color="#587EFF"/>
<stop offset="1" stop-color="#5478F4"/>
</radialGradient>
</defs>
</svg>
