<svg width="19" height="18" viewBox="0 0 19 18" fill="none" xmlns="http://www.w3.org/2000/svg">
<path d="M18.8822 12.8992C14.8917 9.82717 12.5763 5.49143 12.4806 0.921288C12.4775 0.758638 12.3507 0.628677 12.1928 0.628677H7.47276C7.31489 0.628677 7.18812 0.758638 7.18493 0.921288C7.08926 5.48984 4.7699 9.82717 0.779393 12.8992C0.652622 12.9965 0.623919 13.1798 0.716406 13.3114L3.47747 17.2477C3.57155 17.3816 3.75493 17.4119 3.8833 17.3131C6.37886 15.4043 8.38567 13.1041 9.8312 10.5519C11.2767 13.1041 13.2843 15.4043 15.7791 17.3131C15.9075 17.4119 16.0908 17.3816 16.1849 17.2477L18.946 13.3114C19.0385 13.1798 19.009 12.9965 18.8822 12.8992Z" fill="#FF875B"/>
</svg>
