<svg width="24" height="25" viewBox="0 0 24 25" fill="none" xmlns="http://www.w3.org/2000/svg">
<g clip-path="url(#clip0_862_882)">
<path d="M23.6407 15.4031C22.0378 21.8317 15.5259 25.744 9.09581 24.1409C2.66839 22.5383 -1.24439 16.0267 0.359179 9.59858C1.96134 3.16924 8.47324 -0.743392 14.9014 0.859295C21.331 2.46198 25.2436 8.97426 23.6405 15.4032L23.6406 15.4031H23.6407Z" fill="#F7931A"/>
<path d="M17.292 10.7903C17.5308 9.19337 16.3149 8.33495 14.6522 7.7623L15.1916 5.59911L13.8746 5.271L13.3496 7.37723C13.0033 7.29089 12.6478 7.20954 12.2944 7.12889L12.8233 5.00875L11.5072 4.68063L10.9675 6.84312C10.681 6.7779 10.3996 6.71344 10.1266 6.64551L10.1281 6.63871L8.312 6.18525L7.96167 7.59168C7.96167 7.59168 8.93874 7.81562 8.91815 7.8294C9.45144 7.96249 9.54788 8.31548 9.53187 8.59526L8.91745 11.0596C8.95417 11.069 9.0018 11.0825 9.05436 11.1036C9.01042 11.0927 8.96367 11.0808 8.91516 11.0691L8.05395 14.5214C7.98878 14.6834 7.82335 14.9265 7.4505 14.8342C7.4637 14.8533 6.49332 14.5954 6.49332 14.5954L5.83948 16.1027L7.55327 16.5299C7.8721 16.6098 8.18453 16.6934 8.49221 16.7721L7.94724 18.9601L9.26267 19.2882L9.80235 17.1234C10.1617 17.221 10.5105 17.311 10.8519 17.3958L10.314 19.5504L11.631 19.8785L12.1759 17.6946C14.4216 18.1195 16.1102 17.9482 16.8209 15.9172C17.3936 14.282 16.7924 13.3389 15.611 12.7238C16.4715 12.5254 17.1196 11.9595 17.2924 10.7905L17.292 10.7902L17.292 10.7903ZM14.283 15.0091C13.876 16.6443 11.1226 15.7604 10.2299 15.5387L10.9531 12.64C11.8457 12.8628 14.7084 13.3038 14.2831 15.0091H14.283ZM14.6903 10.7666C14.3191 12.254 12.0273 11.4983 11.2839 11.313L11.9396 8.68406C12.683 8.86936 15.0771 9.21518 14.6904 10.7666H14.6903Z" fill="white"/>
</g>
<defs>
<clipPath id="clip0_862_882">
<rect width="24" height="24" fill="white" transform="translate(0 0.5)"/>
</clipPath>
</defs>
</svg>
