<svg width="31" height="23" viewBox="0 0 31 23" fill="none" xmlns="http://www.w3.org/2000/svg">
<path d="M23.9238 0.405518H7.79443C7.72068 0.40556 7.64858 0.42738 7.58719 0.46824C7.52579 0.5091 7.47783 0.56718 7.44931 0.635195C7.4208 0.703211 7.413 0.778132 7.42691 0.85056C7.44081 0.922989 7.47579 0.989699 7.52746 1.04232L11.0085 4.57769C11.0783 4.64786 11.1175 4.7428 11.1175 4.84177C11.1175 4.94075 11.0783 5.03569 11.0085 5.10586L0.115783 15.9743C0.063462 16.0267 0.0278367 16.0934 0.0134079 16.166C-0.00102099 16.2386 0.00639407 16.3138 0.0347162 16.3822C0.0630383 16.4506 0.110997 16.5091 0.172532 16.5502C0.234067 16.5914 0.306418 16.6134 0.380444 16.6134H7.19923C7.67168 16.6139 8.13956 16.5209 8.57592 16.3398C9.01229 16.1587 9.40853 15.8931 9.74183 15.5583L24.1884 1.04463C24.2407 0.992267 24.2764 0.925566 24.2908 0.85296C24.3052 0.780354 24.2978 0.705101 24.2695 0.636707C24.2412 0.568314 24.1932 0.509849 24.1317 0.4687C24.0701 0.427551 23.9978 0.405564 23.9238 0.405518Z" fill="#B7B7B7"/>
<path d="M6.64312 22.7594H22.7678C22.8416 22.7594 22.9137 22.7376 22.9751 22.6967C23.0365 22.6559 23.0844 22.5978 23.1129 22.5298C23.1415 22.4618 23.1492 22.3868 23.1353 22.3144C23.1214 22.242 23.0865 22.1753 23.0348 22.1226L19.5537 18.5873C19.4839 18.5171 19.4448 18.4222 19.4448 18.3232C19.4448 18.2242 19.4839 18.1293 19.5537 18.0591L30.4488 7.19527C30.5011 7.1429 30.5367 7.0762 30.5512 7.0036C30.5656 6.93099 30.5582 6.85574 30.5298 6.78734C30.5015 6.71895 30.4536 6.66049 30.392 6.61934C30.3305 6.57819 30.2581 6.5562 30.1841 6.55615H23.3653C22.8929 6.5557 22.425 6.6487 21.9886 6.82979C21.5523 7.01089 21.156 7.27649 20.8227 7.61133L6.37614 22.125C6.32525 22.1777 6.29095 22.2442 6.27749 22.3162C6.26403 22.3883 6.272 22.4627 6.30043 22.5302C6.32885 22.5978 6.37647 22.6555 6.43738 22.6962C6.4983 22.737 6.56983 22.759 6.64312 22.7594Z" fill="#B7B7B7"/>
</svg>
